<svg width="14" height="15" viewBox="0 0 14 15" fill="none" xmlns="http://www.w3.org/2000/svg">
<path d="M6.58812 4.22754L7.90716 4.64648C7.95195 4.65911 7.99204 4.68922 8.02118 4.73213C8.05032 4.77505 8.06688 4.82836 8.0683 4.88379C8.0683 5.01855 7.96889 5.12988 7.84664 5.12988H6.98138C6.88813 5.12956 6.79581 5.10768 6.7094 5.06543C6.58205 5.00098 6.43524 5.01562 6.33754 5.12402L5.87574 5.63672C5.85438 5.65925 5.83595 5.68552 5.82105 5.71465C5.80199 5.75234 5.7893 5.79422 5.78372 5.83785C5.77814 5.88148 5.77979 5.92602 5.78855 5.96888C5.79732 6.01175 5.81304 6.0521 5.8348 6.08761C5.85656 6.12312 5.88394 6.15309 5.91536 6.17578C6.1711 6.36078 6.45744 6.4758 6.75413 6.5127V7.03125C6.75413 7.28906 6.94443 7.5 7.1763 7.5H7.59848C7.8306 7.5 8.0209 7.28906 8.0209 7.03125V6.51562C8.82127 6.41016 9.42671 5.60742 9.32122 4.66992C9.24466 3.99609 8.77533 3.45996 8.18958 3.27246L6.87055 2.85352C6.82575 2.84089 6.78567 2.81078 6.75653 2.76787C6.72738 2.72495 6.71082 2.67164 6.7094 2.61621C6.7094 2.48145 6.80881 2.37012 6.93107 2.37012H7.79632C7.88989 2.37029 7.98256 2.39217 8.06927 2.43457C8.19639 2.49902 8.34343 2.48438 8.44114 2.37598L8.90293 1.86328C8.92358 1.84123 8.94137 1.81555 8.95568 1.78711C8.9749 1.74943 8.98775 1.70752 8.99346 1.66382C8.99918 1.62012 8.99765 1.57549 8.98897 1.5325C8.98029 1.48952 8.96463 1.44903 8.9429 1.41338C8.92117 1.37773 8.89379 1.34763 8.86234 1.3248C8.60651 1.1398 8.3201 1.02479 8.02333 0.987891V0.46875C8.02333 0.210938 7.83327 0 7.60116 0H7.17898C6.94686 0 6.7568 0.210938 6.7568 0.46875V0.984375C5.95741 1.08984 5.35075 1.89258 5.45624 2.83008C5.53255 3.50391 6.00334 4.04004 6.58812 4.22754ZM13.7389 9.6123C13.4521 9.29883 13.0049 9.31934 12.7035 9.6123L10.4577 11.7773C10.182 12.0439 9.83895 12.1887 9.48552 12.1875H6.61097C6.50783 12.1875 6.40892 12.1381 6.33599 12.0502C6.26306 11.9623 6.22209 11.8431 6.22209 11.7188C6.22209 11.5944 6.26306 11.4752 6.33599 11.3873C6.40892 11.2994 6.50783 11.25 6.61097 11.25H8.51381C8.90026 11.25 9.26022 10.9307 9.32195 10.4707C9.32956 10.4179 9.3333 10.3644 9.33313 10.3107C9.33275 10.0624 9.25063 9.8244 9.10482 9.64896C8.959 9.47353 8.76139 9.375 8.55537 9.375H4.66657C4.01072 9.37521 3.37487 9.64714 2.86556 10.1452L1.73538 11.25H0.38888C0.285743 11.25 0.18683 11.2994 0.1139 11.3873C0.0409712 11.4752 0 11.5944 0 11.7188L0 14.5312C0 14.6556 0.0409712 14.7748 0.1139 14.8627C0.18683 14.9506 0.285743 15 0.38888 15H9.06019C9.41349 15.0003 9.75637 14.8557 10.0324 14.5898L13.708 11.0449C13.7965 10.9597 13.8684 10.8522 13.9188 10.73C13.9691 10.6078 13.9968 10.4738 13.9997 10.3373C14.0027 10.2009 13.9809 10.0653 13.9359 9.94011C13.8909 9.81488 13.8237 9.70301 13.7391 9.6123H13.7389Z" fill="white"/>
</svg>
