<svg width="14" height="15" viewBox="0 0 14 15" fill="none" xmlns="http://www.w3.org/2000/svg">
<path d="M10.1699 6.83789L4.91873 5.91211C4.31096 5.80664 3.88795 5.46387 3.88795 5.08301C3.88795 4.60547 4.52976 4.21875 5.32229 4.21875H8.5459C9.13908 4.21875 9.72254 4.32715 10.2088 4.52637C10.5053 4.64648 10.904 4.61719 11.1569 4.46777L12.8489 3.47168C13.1941 3.26953 13.1455 2.93262 12.7614 2.75391C11.5702 2.19141 10.0823 1.87793 8.55562 1.875V0.46875C8.55562 0.210938 8.20555 0 7.77768 0H6.22179C5.79392 0 5.44384 0.210938 5.44384 0.46875V1.875H5.32229C2.2251 1.875 -0.264328 3.47754 0.0225394 5.37891C0.22675 6.72949 1.93823 7.82813 4.09703 8.20898L9.08074 9.08789C9.6885 9.19629 10.1115 9.53613 10.1115 9.91699C10.1115 10.3945 9.46971 10.7812 8.67718 10.7812H5.45357C4.86038 10.7812 4.27693 10.6729 3.79071 10.4736C3.49412 10.3535 3.09542 10.3828 2.84259 10.5322L1.15056 11.5283C0.805346 11.7305 0.853968 12.0674 1.23808 12.2461C2.42931 12.8086 3.91713 13.1221 5.44384 13.125V14.5312C5.44384 14.7891 5.79392 15 6.22179 15H7.77768C8.20555 15 8.55562 14.7891 8.55562 14.5312V13.1191C10.8214 13.0928 12.9461 12.2812 13.6949 10.9893C14.7403 9.18457 12.985 7.33301 10.1699 6.83789Z" fill="white"/>
</svg>
