<svg xmlns="http://www.w3.org/2000/svg" width="512" height="399.739" viewBox="0 0 512 399.739">
  <g id="camera" transform="translate(0 -64.135)">
    <path id="Path_4021" data-name="Path 4021" d="M431.159,118.263V108.7a44.6,44.6,0,0,0-44.374-44.566H253.843A44.6,44.6,0,0,0,209.469,108.7v9.562Z" fill="#477b9e"/>
    <path id="Path_4022" data-name="Path 4022" d="M311.846,64.135h-58A44.6,44.6,0,0,0,209.469,108.7v9.562h58V108.7A44.6,44.6,0,0,1,311.846,64.135Z" fill="#3f6d8e"/>
    <path id="Path_4023" data-name="Path 4023" d="M136.449,179.924V403.132A28.648,28.648,0,0,1,107.885,431.7H483.436A28.648,28.648,0,0,0,512,403.132V179.924Z" fill="#3f6d8e"/>
    <path id="Path_4024" data-name="Path 4024" d="M191.656,403.133V179.924H136.449V403.132A28.648,28.648,0,0,1,107.885,431.7h55.207A28.647,28.647,0,0,0,191.656,403.133Z" fill="#365e7d"/>
    <path id="Path_4025" data-name="Path 4025" d="M483.436,118.03H107.885a28.648,28.648,0,0,1,28.564,28.564v35.391H512V146.594A28.648,28.648,0,0,0,483.436,118.03Z" fill="#b5dcff"/>
    <path id="Path_4026" data-name="Path 4026" d="M483.436,118.03H107.885a28.648,28.648,0,0,1,28.564,28.564v35.391H512V146.594A28.648,28.648,0,0,0,483.436,118.03Z" fill="#b5dcff"/>
    <path id="Path_4027" data-name="Path 4027" d="M163.092,118.03H107.885a28.648,28.648,0,0,1,28.564,28.564v35.391h55.207V146.594A28.648,28.648,0,0,0,163.092,118.03Z" fill="#8bcaff"/>
    <path id="Path_4028" data-name="Path 4028" d="M94.406,77.486H44.1A13,13,0,0,0,31.169,90.477v14.795A13,13,0,0,0,44.1,118.263h50.3a13,13,0,0,0,12.935-12.991V90.477A13,13,0,0,0,94.406,77.486Z" fill="#477b9e"/>
    <path id="Path_4029" data-name="Path 4029" d="M69.255,105.272V90.477A13,13,0,0,1,82.19,77.486H44.1A13,13,0,0,0,31.169,90.477v14.795A13,13,0,0,0,44.1,118.263H82.19A13,13,0,0,1,69.255,105.272Z" fill="#3f6d8e"/>
    <path id="Path_4030" data-name="Path 4030" d="M0,179.924V403.132A28.648,28.648,0,0,0,28.564,431.7h81.381a28.648,28.648,0,0,0,28.564-28.564V179.924Z" fill="#477b9e"/>
    <path id="Path_4031" data-name="Path 4031" d="M51.695,403.133V179.924H0V403.132A28.648,28.648,0,0,0,28.564,431.7h51.7A28.647,28.647,0,0,1,51.7,403.133Z" fill="#3f6d8e"/>
    <path id="Path_4032" data-name="Path 4032" d="M109.945,118.03H28.564A28.648,28.648,0,0,0,0,146.594v35.391H138.51V146.594a28.648,28.648,0,0,0-28.565-28.564Z" fill="#dbedff"/>
    <path id="Path_4033" data-name="Path 4033" d="M80.259,118.03H28.564A28.648,28.648,0,0,0,0,146.594v35.391H51.7V146.594A28.648,28.648,0,0,1,80.259,118.03Z" fill="#b5dcff"/>
    <g id="Group_2288" data-name="Group 2288">
      <g id="Group_2287" data-name="Group 2287">
        <path id="Path_4034" data-name="Path 4034" d="M320.314,447.866c-82.219,0-149.109-66.89-149.109-149.109S238.1,149.648,320.314,149.648s149.109,66.89,149.109,149.109S402.532,447.866,320.314,447.866Z" fill="#365e7d"/>
      </g>
    </g>
    <path id="Path_4035" data-name="Path 4035" d="M221.27,298.757c0-73.689,53.735-135.055,124.076-147a149.479,149.479,0,0,0-25.032-2.113c-82.219,0-149.109,66.89-149.109,149.109S238.1,447.866,320.314,447.866a149.463,149.463,0,0,0,25.032-2.112c-70.341-11.942-124.076-73.308-124.076-147Z" fill="#294b64"/>
    <circle id="Ellipse_332" data-name="Ellipse 332" cx="116.772" cy="116.772" r="116.772" transform="translate(155.133 298.759) rotate(-45)" fill="#7fb3fa"/>
    <path id="Path_4036" data-name="Path 4036" d="M253.607,298.757A116.968,116.968,0,0,1,345.346,184.7a116.772,116.772,0,1,0,0,228.124,116.972,116.972,0,0,1-91.739-114.063Z" fill="#64a6f4"/>
    <circle id="Ellipse_333" data-name="Ellipse 333" cx="71.576" cy="71.576" r="71.576" transform="translate(219.04 298.759) rotate(-45)" fill="#64a6f4"/>
    <path id="Path_4037" data-name="Path 4037" d="M298.8,298.757a71.69,71.69,0,0,1,46.544-67.049,71.576,71.576,0,1,0,0,134.1A71.69,71.69,0,0,1,298.8,298.757Z" fill="#3d8bd8"/>
    <circle id="Ellipse_334" data-name="Ellipse 334" cx="21.813" cy="21.813" r="21.813" transform="translate(289.405 298.759) rotate(-45)" fill="#9cc5fa"/>
    <path id="Path_4038" data-name="Path 4038" d="M320.314,298.757a21.809,21.809,0,0,1,10.907-18.862,21.814,21.814,0,1,0,0,37.723A21.806,21.806,0,0,1,320.314,298.757Z" fill="#7fb3fa"/>
  </g>
</svg>
