<svg xmlns="http://www.w3.org/2000/svg" width="430.217" height="377.08" viewBox="0 0 430.217 377.08">
  <g id="gallery" transform="translate(0 -26.568)">
    <g id="Group_2285" data-name="Group 2285">
      <path id="Path_4016" data-name="Path 4016" d="M391.851,69.8a31.346,31.346,0,0,1,27.167,34.482L394.985,316.919A30.824,30.824,0,0,1,361,344.214q-.508-.055-1.015-.128h-1.567V149.212a31.348,31.348,0,0,0-31.347-31.347H65.843L72.112,65.62A30.825,30.825,0,0,1,105.7,37.833q.447.042.894.1Z" fill="#00acea"/>
      <path id="Path_4017" data-name="Path 4017" d="M358.414,344.085v18.808a31.348,31.348,0,0,1-31.347,31.347H40.243A31.348,31.348,0,0,1,8.9,362.893V319.007l86.2-62.693a35.526,35.526,0,0,1,45.453,2.09l57.469,50.155a37.094,37.094,0,0,0,42.841,3.657l117.551-68.963Z" fill="#00ceb4"/>
      <path id="Path_4018" data-name="Path 4018" d="M358.414,149.212v94.041L240.863,312.216a37.094,37.094,0,0,1-42.841-3.657L140.553,258.4a35.527,35.527,0,0,0-45.453-2.09L8.9,319.008v-169.8a31.348,31.348,0,0,1,31.347-31.347H327.067A31.346,31.346,0,0,1,358.414,149.212Zm-107.1,54.335a33.437,33.437,0,0,0-66.873-.029v.029a33.437,33.437,0,1,0,66.873.029Z" fill="#00efd1"/>
      <circle id="Ellipse_331" data-name="Ellipse 331" cx="33.437" cy="33.437" r="33.437" transform="translate(184.438 170.11)" fill="#d4e1f4"/>
    </g>
    <g id="Group_2286" data-name="Group 2286">
      <path id="Path_4019" data-name="Path 4019" d="M217.875,247.432a43.886,43.886,0,1,1,43.886-43.886A43.886,43.886,0,0,1,217.875,247.432Zm0-66.873a22.988,22.988,0,1,0,22.988,22.988,22.988,22.988,0,0,0-22.988-22.988Z" fill="#083863"/>
      <path id="Path_4020" data-name="Path 4020" d="M420.586,75.024A41.792,41.792,0,0,0,392.9,59.351L107.639,26.959a39.179,39.179,0,0,0-30.824,8.882A39.7,39.7,0,0,0,61.664,63.008L56.44,105.849h-16.2c-22.988,0-40.229,20.376-40.229,43.363V362.894a39.706,39.706,0,0,0,38.644,40.741q.792.021,1.585.01H327.067c22.988,0,43.886-17.763,43.886-40.751v-8.359a52.242,52.242,0,0,0,19.853-8.359,43.366,43.366,0,0,0,15.151-28.212L429.99,105.85A41.276,41.276,0,0,0,420.586,75.024ZM40.243,126.747H327.067a24.033,24.033,0,0,1,22.988,22.465v87.771L236.161,303.334a26.643,26.643,0,0,1-30.824-2.612l-57.469-50.155a45.976,45.976,0,0,0-57.992-2.612L20.912,298.11v-148.9C20.912,137.718,28.749,126.747,40.243,126.747Zm286.824,256H40.243A18.808,18.808,0,0,1,20.891,364.5c-.016-.535-.009-1.071.021-1.605V324.233l80.98-59.559a25.079,25.079,0,0,1,32.392,1.567L191.231,316.4a49.114,49.114,0,0,0,30.824,11.494,47.542,47.542,0,0,0,25.078-6.792l102.922-59.559V362.894C350.055,374.387,338.561,382.747,327.067,382.747Zm82.025-279.511L384.537,315.35a17.762,17.762,0,0,1-6.792,14.106c-2.09,2.09-6.792,3.135-6.792,4.18V149.212a44.93,44.93,0,0,0-43.886-43.363H77.337l4.7-40.751a24.034,24.034,0,0,1,7.837-13.584,24.031,24.031,0,0,1,15.673-4.18L390.284,80.248a19.33,19.33,0,0,1,14.106,7.837A20.382,20.382,0,0,1,409.092,103.236Z" fill="#083863"/>
    </g>
  </g>
</svg>
