<svg width="14" height="15" viewBox="0 0 14 15" fill="none" xmlns="http://www.w3.org/2000/svg">
<path d="M14 2.14286V3.48214C14 4.66239 10.8646 5.625 7 5.625C3.13541 5.625 0 4.66239 0 3.48214V2.14286C0 0.962607 3.13541 0 7 0C10.8646 0 14 0.962607 14 2.14286ZM14 5.15625V8.16964C14 9.34989 10.8646 10.3125 7 10.3125C3.13541 10.3125 0 9.34989 0 8.16964V5.15625C1.50391 6.12724 4.2565 6.57926 7 6.57926C9.7435 6.57926 12.4961 6.12724 14 5.15625ZM14 9.84375V12.8571C14 14.0374 10.8646 15 7 15C3.13541 15 0 14.0374 0 12.8571V9.84375C1.50391 10.8147 4.2565 11.2668 7 11.2668C9.7435 11.2668 12.4961 10.8147 14 9.84375Z" fill="white"/>
</svg>
