<svg width="85" height="85" viewBox="0 0 85 85" fill="none" xmlns="http://www.w3.org/2000/svg">
<path d="M75.8929 85H9.10714C4.07734 85 0 80.9227 0 75.8929V9.10714C0 4.07734 4.07734 0 9.10714 0H75.8929C80.9227 0 85 4.07734 85 9.10714V75.8929C85 80.9227 80.9227 85 75.8929 85ZM37.0573 66.3951L71.9681 31.4843C73.1535 30.2989 73.1535 28.3767 71.9681 27.1913L67.675 22.8982C66.4895 21.7128 64.5674 21.7126 63.3817 22.8982L34.9107 51.369L21.6183 38.0766C20.4328 36.8911 18.5106 36.8911 17.325 38.0766L13.0319 42.3697C11.8465 43.5551 11.8465 45.4773 13.0319 46.6627L32.7641 66.3949C33.9497 67.5807 35.8717 67.5807 37.0573 66.3951V66.3951Z" fill="#97D700"/>
</svg>
