<svg width="22" height="23" viewBox="0 0 22 23" fill="none" xmlns="http://www.w3.org/2000/svg">
<g filter="url(#filter0_dd_145_212)">
<path d="M7.5 6.5625C9.43437 6.5625 11 5.09473 11 3.28125C11 1.46777 9.43437 0 7.5 0C5.56562 0 4 1.46777 4 3.28125C4 5.09473 5.56562 6.5625 7.5 6.5625ZM7.5 1.875C8.32812 1.875 9 2.50488 9 3.28125C9 4.05762 8.32812 4.6875 7.5 4.6875C6.67188 4.6875 6 4.05762 6 3.28125C6 2.50488 6.67188 1.875 7.5 1.875ZM14.5 8.4375C12.5656 8.4375 11 9.90527 11 11.7188C11 13.5322 12.5656 15 14.5 15C16.4344 15 18 13.5322 18 11.7188C18 9.90527 16.4344 8.4375 14.5 8.4375ZM14.5 13.125C13.6719 13.125 13 12.4951 13 11.7188C13 10.9424 13.6719 10.3125 14.5 10.3125C15.3281 10.3125 16 10.9424 16 11.7188C16 12.4951 15.3281 13.125 14.5 13.125ZM16.2594 0.00585938L17.2469 0.00292969C17.8531 0 18.2125 0.641602 17.8625 1.11035L6.41875 14.6953C6.34975 14.7876 6.25807 14.8629 6.15145 14.9149C6.04484 14.9669 5.92644 14.9941 5.80625 14.9941L4.7625 14.9971C4.15312 14.9971 3.79688 14.3555 4.14687 13.8896L15.6469 0.304688C15.7875 0.117187 16.0156 0.00585938 16.2594 0.00585938Z" fill="white"/>
</g>
<defs>
<filter id="filter0_dd_145_212" x="0" y="0" width="22" height="23" filterUnits="userSpaceOnUse" color-interpolation-filters="sRGB">
<feFlood flood-opacity="0" result="BackgroundImageFix"/>
<feColorMatrix in="SourceAlpha" type="matrix" values="0 0 0 0 0 0 0 0 0 0 0 0 0 0 0 0 0 0 127 0" result="hardAlpha"/>
<feOffset dy="4"/>
<feGaussianBlur stdDeviation="2"/>
<feComposite in2="hardAlpha" operator="out"/>
<feColorMatrix type="matrix" values="0 0 0 0 0 0 0 0 0 0 0 0 0 0 0 0 0 0 0.25 0"/>
<feBlend mode="normal" in2="BackgroundImageFix" result="effect1_dropShadow_145_212"/>
<feColorMatrix in="SourceAlpha" type="matrix" values="0 0 0 0 0 0 0 0 0 0 0 0 0 0 0 0 0 0 127 0" result="hardAlpha"/>
<feOffset dy="4"/>
<feGaussianBlur stdDeviation="2"/>
<feComposite in2="hardAlpha" operator="out"/>
<feColorMatrix type="matrix" values="0 0 0 0 0 0 0 0 0 0 0 0 0 0 0 0 0 0 0.25 0"/>
<feBlend mode="normal" in2="effect1_dropShadow_145_212" result="effect2_dropShadow_145_212"/>
<feBlend mode="normal" in="SourceGraphic" in2="effect2_dropShadow_145_212" result="shape"/>
</filter>
</defs>
</svg>
