<svg xmlns="http://www.w3.org/2000/svg" width="512" height="428.195" viewBox="0 0 512 428.195">
  <g id="refresh" transform="translate(0 -41.902)">
    <g id="Group_2307" data-name="Group 2307">
      <g id="Group_2302" data-name="Group 2302">
        <g id="Group_2295" data-name="Group 2295">
          <path id="Path_4039" data-name="Path 4039" d="M383.035,350.532H10.006A10.005,10.005,0,0,1,0,340.527V140.957l5-14.352H388.038l5,14.352V340.526A10.006,10.006,0,0,1,383.035,350.532Z" fill="#d3effb"/>
        </g>
        <g id="Group_2296" data-name="Group 2296">
          <path id="Path_4040" data-name="Path 4040" d="M388.038,126.606H355.417V302.9a10.006,10.006,0,0,1-10.006,10.006H0v27.618a10.006,10.006,0,0,0,10.006,10.006h373.03a10.006,10.006,0,0,0,10.006-10.006V140.957Z" fill="#b1e4f9"/>
        </g>
        <g id="Group_2297" data-name="Group 2297">
          <path id="Path_4041" data-name="Path 4041" d="M393.041,140.957H0V51.9a10,10,0,0,1,10-10H383.041a10,10,0,0,1,10,10Z" fill="#5766cb"/>
        </g>
        <g id="Group_2298" data-name="Group 2298">
          <path id="Path_4042" data-name="Path 4042" d="M383.035,41.9H355.417v99.055h37.624V51.907A10.006,10.006,0,0,0,383.035,41.9Z" fill="#3d4fc3"/>
        </g>
        <g id="Group_2299" data-name="Group 2299">
          <circle id="Ellipse_335" data-name="Ellipse 335" cx="14.633" cy="14.633" r="14.633" transform="translate(33.331 76.515)" fill="#dd636e"/>
        </g>
        <g id="Group_2300" data-name="Group 2300">
          <circle id="Ellipse_336" data-name="Ellipse 336" cx="14.633" cy="14.633" r="14.633" transform="translate(77.832 76.515)" fill="#ffd064"/>
        </g>
        <g id="Group_2301" data-name="Group 2301">
          <circle id="Ellipse_337" data-name="Ellipse 337" cx="14.633" cy="14.633" r="14.633" transform="translate(122.332 76.515)" fill="#b1e4f9"/>
        </g>
      </g>
      <g id="Group_2303" data-name="Group 2303">
        <path id="Path_4043" data-name="Path 4043" d="M119.087,274.315H47.675a14.344,14.344,0,0,1-14.344-14.344V188.559a14.344,14.344,0,0,1,14.344-14.344h70.756a15,15,0,0,1,15,15v70.756A14.344,14.344,0,0,1,119.087,274.315Z" fill="#90d8f9"/>
      </g>
      <g id="Group_2306" data-name="Group 2306">
        <g id="Group_2304" data-name="Group 2304">
          <path id="Path_4044" data-name="Path 4044" d="M224.117,186.785H168.924a7.5,7.5,0,0,1,0-15.008h55.193a7.5,7.5,0,0,1,0,15.008Z" fill="#90d8f9"/>
        </g>
        <g id="Group_2305" data-name="Group 2305">
          <path id="Path_4045" data-name="Path 4045" d="M224.117,221.491H168.924a7.5,7.5,0,0,1,0-15.008h55.193a7.5,7.5,0,1,1,0,15.008Z" fill="#90d8f9"/>
        </g>
      </g>
    </g>
    <g id="Group_2313" data-name="Group 2313">
      <g id="Group_2308" data-name="Group 2308">
        <path id="Path_4046" data-name="Path 4046" d="M427.176,209.536l2.2-5.155a4,4,0,0,0-4.871-5.4L379.5,213.014a4,4,0,0,0-2.395,5.6l20.933,42.24a4,4,0,0,0,7.266-.2l2.453-5.734a2,2,0,0,1,2.552-1.09,88.052,88.052,0,0,1,.007,164.278,6.331,6.331,0,0,0-3.743,7.793l9.733,31.227a6.371,6.371,0,0,0,8.3,4.062c66.242-24.321,102.563-96.856,81.336-164.959a133.237,133.237,0,0,0-77.664-84.05,2,2,0,0,1-1.1-2.64Z" fill="#78d090"/>
      </g>
      <g id="Group_2309" data-name="Group 2309">
        <path id="Path_4047" data-name="Path 4047" d="M332.47,210.689c-66.243,24.321-102.564,96.857-81.337,164.959a133.183,133.183,0,0,0,75.058,82.961,2,2,0,0,1,1.064,2.624l-1.4,3.281a4,4,0,0,0,4.871,5.395l45.007-14.028a4,4,0,0,0,2.395-5.6l-20.933-42.24a4,4,0,0,0-7.266.2l-3.266,7.634a2,2,0,0,1-2.611,1.065,88.05,88.05,0,0,1,2.708-163.174,6.331,6.331,0,0,0,3.743-7.793l-9.733-31.227a6.371,6.371,0,0,0-8.3-4.062Z" fill="#78d090"/>
      </g>
      <g id="Group_2310" data-name="Group 2310">
        <path id="Path_4048" data-name="Path 4048" d="M428.278,212.176a2,2,0,0,1-1.1-2.64l2.2-5.155a4,4,0,0,0-4.871-5.4l-19.343,6.029a4,4,0,0,1,4.871,5.4l-2.2,5.155a2,2,0,0,0,1.1,2.64,133.239,133.239,0,0,1,77.664,84.05c19.637,63-9.979,129.789-66.968,158.7a6.39,6.39,0,0,0,4.975.232c66.242-24.321,102.563-96.857,81.336-164.959a133.239,133.239,0,0,0-77.664-84.05Z" fill="#6ec186"/>
      </g>
      <g id="Group_2312" data-name="Group 2312">
        <g id="Group_2311" data-name="Group 2311">
          <path id="Path_4049" data-name="Path 4049" d="M357.19,408.043a4,4,0,0,0-7.266.2l-3.266,7.634a2,2,0,0,1-2.611,1.065,88,88,0,0,1-31.521-139.3A88.03,88.03,0,0,0,327.4,431.608a2,2,0,0,0,2.611-1.065l3.266-7.634a4,4,0,0,1,7.266-.2l18.95,38.237,16.241-5.062a4,4,0,0,0,2.395-5.6Z" fill="#6ec186"/>
        </g>
      </g>
    </g>
  </g>
</svg>
